<svg id="Layer_1" data-name="Layer 1" xmlns="http://www.w3.org/2000/svg" viewBox="0 0 443.02 461.85"><defs><style>.cls-1{fill:none;stroke:#666;stroke-miterlimit:10;}.cls-2{fill:#e7d9c8;}</style></defs><title>simg03</title><path class="cls-1" d="M296.44,230.68S150.1,231.85,96.83,376.43" transform="translate(-83.6 -222.85)"/><path class="cls-1" d="M92.45,395.62s-45.27,139.17,75,235.51" transform="translate(-83.6 -222.85)"/><circle class="cls-2" cx="10.67" cy="163.18" r="7.83"/><circle class="cls-2" cx="87.57" cy="415.02" r="7.83"/><circle class="cls-2" cx="352.38" cy="415.02" r="7.83"/><circle class="cls-2" cx="221.51" cy="7.83" r="7.83"/><line class="cls-1" x1="216.38" y1="14.27" x2="18.5" y2="155.35"/><line class="cls-1" x1="13.23" y1="175.24" x2="87.57" y2="402.95"/><path class="cls-1" d="M313.78,230.68s146.34,1.17,199.61,145.75" transform="translate(-83.6 -222.85)"/><path class="cls-1" d="M517.77,395.62s45.27,139.17-75,235.51" transform="translate(-83.6 -222.85)"/><circle class="cls-2" cx="432.35" cy="163.18" r="7.83"/><line class="cls-1" x1="226.64" y1="14.27" x2="424.52" y2="155.35"/><line class="cls-1" x1="429.79" y1="175.24" x2="355.45" y2="402.95"/><line class="cls-1" x1="98.69" y1="416.99" x2="341.04" y2="416.99"/><path class="cls-1" d="M182.29,645.69s117.66,86.64,245.86,0" transform="translate(-83.6 -222.85)"/></svg>